<?xml version="1.0" standalone="no"?>
<!DOCTYPE svg PUBLIC "-//W3C//DTD SVG 20010904//EN"
 "http://www.w3.org/TR/2001/REC-SVG-20010904/DTD/svg10.dtd">
<svg version="1.0" xmlns="http://www.w3.org/2000/svg"
 width="50.000000pt" height="50.000000pt" viewBox="0 0 50.000000 50.000000"
 preserveAspectRatio="xMidYMid meet">

<g transform="translate(0.000000,50.000000) scale(0.100000,-0.100000)"
fill="#000000" stroke="none">
<path d="M47 456 c-34 -32 -39 -65 -35 -240 l3 -148 33 -29 32 -29 170 0 170
0 32 29 33 29 3 148 c4 175 -1 208 -35 240 -25 23 -30 24 -203 24 -173 0 -178
-1 -203 -24z m400 -21 l26 -30 -6 -152 c-3 -84 -11 -162 -17 -173 -10 -19 -20
-20 -200 -20 -182 0 -190 1 -200 21 -7 11 -14 88 -17 169 -5 130 -4 152 11
175 9 14 27 30 39 35 12 5 93 8 180 7 l159 -2 25 -30z"/>
</g>
</svg>
